<svg xmlns="http://www.w3.org/2000/svg" width="32" height="32" viewBox="0 0 32 32">
  <defs>
    <linearGradient id="gradient" x1="0%" y1="0%" x2="100%" y2="100%">
      <stop offset="0%" stop-color="#ff6b6b" />
      <stop offset="100%" stop-color="#4ecdc4" />
    </linearGradient>
  </defs>
  <circle cx="16" cy="16" r="15" fill="white" stroke="url(#gradient)" stroke-width="2" />
  <path d="M16 26.2c-.2 0-.5-.1-.7-.2-5.2-4.8-7.8-7.3-9.1-10.3-1.3-2.9-.6-6.4 2.3-8.2 1.8-1.1 4.1-1.1 5.8 0L16 8.7l1.7-1.2c1.7-1.1 4-1.1 5.8 0 2.9 1.8 3.6 5.3 2.3 8.2-1.3 3-3.9 5.5-9.1 10.3-.2.1-.5.2-.7.2z" fill="url(#gradient)" />
</svg> 